<svg width="32" height="32" viewBox="0 0 32 32" fill="none" xmlns="http://www.w3.org/2000/svg">
<path d="M27.0236 4.97631L28.0843 3.91565V3.91565L27.0236 4.97631ZM8.66667 28.0473V29.5473C9.06449 29.5473 9.44602 29.3893 9.72733 29.108L8.66667 28.0473ZM4 28.0473H2.5C2.5 28.8757 3.17157 29.5473 4 29.5473V28.0473ZM4 23.2859L2.93934 22.2252C2.65804 22.5065 2.5 22.8881 2.5 23.2859H4ZM23.3702 6.03697C24.0862 5.32101 25.247 5.32101 25.963 6.03697L28.0843 3.91565C26.1967 2.02812 23.1364 2.02812 21.2489 3.91565L23.3702 6.03697ZM25.963 6.03697C26.6789 6.75293 26.6789 7.91373 25.963 8.6297L28.0843 10.751C29.9718 8.86348 29.9718 5.80318 28.0843 3.91565L25.963 6.03697ZM25.963 8.6297L7.60601 26.9866L9.72733 29.108L28.0843 10.751L25.963 8.6297ZM8.66667 26.5473H4V29.5473H8.66667V26.5473ZM21.2489 3.91565L2.93934 22.2252L5.06066 24.3465L23.3702 6.03697L21.2489 3.91565ZM2.5 23.2859V28.0473H5.5V23.2859H2.5ZM19.2489 8.03697L23.963 12.751L26.0843 10.6297L21.3702 5.91565L19.2489 8.03697Z" fill="#6A3EA1"/>
</svg>
