<svg width="18" height="18" viewBox="0 0 18 18" fill="none" xmlns="http://www.w3.org/2000/svg">
<path d="M6.85824 13.5833H11.1418M9.00001 0.75V1.66667M14.8336 3.16637L14.1855 3.81455M17.2501 8.99995H16.3334M1.66673 8.99995H0.750061M3.81456 3.81455L3.16638 3.16637M5.75911 12.2409C3.9692 10.451 3.9692 7.54902 5.75911 5.75912C7.54901 3.96921 10.451 3.96921 12.2409 5.75912C14.0308 7.54902 14.0308 10.451 12.2409 12.2409L11.7394 12.7424C11.1593 13.3226 10.8333 14.1094 10.8333 14.9299V15.4167C10.8333 16.4292 10.0125 17.25 9.00001 17.25C7.98749 17.25 7.16668 16.4292 7.16668 15.4167V14.9299C7.16668 14.1094 6.84076 13.3226 6.26061 12.7424L5.75911 12.2409Z" stroke="white" stroke-linecap="round" stroke-linejoin="round"/>
</svg>
