<svg width="22" height="22" viewBox="0 0 22 22" fill="none" xmlns="http://www.w3.org/2000/svg">
<path d="M8.24998 4.58333H6.41665C5.40412 4.58333 4.58331 5.40414 4.58331 6.41667V17.4167C4.58331 18.4292 5.40412 19.25 6.41665 19.25H15.5833C16.5958 19.25 17.4166 18.4292 17.4166 17.4167V6.41667C17.4166 5.40414 16.5958 4.58333 15.5833 4.58333H13.75M8.24998 4.58333C8.24998 5.59586 9.07079 6.41667 10.0833 6.41667H11.9166C12.9292 6.41667 13.75 5.59586 13.75 4.58333M8.24998 4.58333C8.24998 3.57081 9.07079 2.75 10.0833 2.75H11.9166C12.9292 2.75 13.75 3.57081 13.75 4.58333M11 11H13.75M11 14.6667H13.75M8.24998 11H8.25915M8.24998 14.6667H8.25915" stroke="white" stroke-linecap="round"/>
</svg>
