<svg width="22" height="22" viewBox="0 0 22 22" fill="none" xmlns="http://www.w3.org/2000/svg">
<path d="M9.46424 3.95753C9.85511 2.34749 12.1449 2.34749 12.5358 3.95753C12.7883 4.9976 13.9799 5.49118 14.8938 4.93428C16.3087 4.07219 17.9278 5.69131 17.0657 7.10617C16.5088 8.02015 17.0024 9.21175 18.0425 9.46424C19.6525 9.85511 19.6525 12.1449 18.0425 12.5358C17.0024 12.7883 16.5088 13.9799 17.0657 14.8938C17.9278 16.3087 16.3087 17.9278 14.8938 17.0657C13.9799 16.5088 12.7883 17.0024 12.5358 18.0425C12.1449 19.6525 9.85511 19.6525 9.46424 18.0425C9.21175 17.0024 8.02015 16.5088 7.10617 17.0657C5.69131 17.9278 4.07219 16.3087 4.93428 14.8938C5.49118 13.9799 4.9976 12.7883 3.95753 12.5358C2.34749 12.1449 2.34749 9.85511 3.95753 9.46424C4.9976 9.21175 5.49118 8.02015 4.93428 7.10617C4.07219 5.69131 5.69131 4.07219 7.10617 4.93428C8.02015 5.49118 9.21175 4.9976 9.46424 3.95753Z" stroke="#6A3EA1" stroke-width="2" stroke-linecap="round" stroke-linejoin="round"/>
<path d="M13.75 11C13.75 12.5188 12.5188 13.75 11 13.75C9.48122 13.75 8.25 12.5188 8.25 11C8.25 9.48122 9.48122 8.25 11 8.25C12.5188 8.25 13.75 9.48122 13.75 11Z" stroke="#6A3EA1" stroke-width="2" stroke-linecap="round" stroke-linejoin="round"/>
</svg>
